Coordinates
version=1
nRows=24
nColumns=22
inDegrees=yes

Units are S.I. units (second, meters, Newtons, ...)
If the header above contains a line with 'inDegrees', this indicates whether rotational values are in degrees (yes) or radians (no).

endheader
time	pelvis_tilt	pelvis_list	pelvis_rotation	pelvis_tx	pelvis_ty	pelvis_tz	hip_flexion_r	hip_adduction_r	hip_rotation_r	knee_angle_r	ankle_angle_r	subtalar_angle_r	hip_flexion_l	hip_adduction_l	hip_rotation_l	knee_angle_l	ankle_angle_l	subtalar_angle_l	lumbar_extension	lumbar_bending	lumbar_rotation
      0.01000000	     -1.42636482	     -2.26604929	      1.66514510	     -1.12233293	      0.94645021	      0.74212221	     -0.40064163	      1.95329308	    -16.59521855	     -8.02009361	      9.82632272	      2.40170829	      1.97044949	     -4.90922189	    -10.29014335	    -13.80313310	     13.14882312	     -1.33615731	     -6.11304981	      0.36545712	     -5.18074266
      0.02000000	     -1.40953652	     -2.26195983	      1.67890658	     -1.12215050	      0.94645654	      0.74210498	     -0.40253361	      1.94456846	    -16.58170305	     -8.07638447	      9.82638898	      2.39411791	      1.93926512	     -4.90533379	    -10.27892593	    -13.79820778	     13.16304096	     -1.34978717	     -6.11022975	      0.36766944	     -5.21476876
      0.03000000	     -1.39006417	     -2.25845843	      1.69410890	     -1.12194601	      0.94646833	      0.74207835	     -0.39900525	      1.93280394	    -16.57978811	     -8.15210655	      9.85251481	      2.38251587	      1.89939860	     -4.90023959	    -10.26149416	    -13.78373976	     13.17708519	     -1.36212976	     -6.10921093	      0.37262630	     -5.24330422
      0.04000000	     -1.36413616	     -2.23470453	      1.71507013	     -1.12171060	      0.94648765	      0.74202816	     -0.39641951	      1.89328841	    -16.63637907	     -8.24648792	      9.95351658	      2.35327520	      1.84531983	     -4.86910076	    -10.22401709	    -13.75908324	     13.18661814	     -1.39215370	     -6.11329593	      0.35377893	     -5.25773332
      0.05000000	     -1.34897432	     -2.23368634	      1.73023799	     -1.12150332	      0.94650314	      0.74199675	     -0.38660691	      1.88337678	    -16.63152575	     -8.32413983	      9.97381160	      2.34890242	      1.81549619	     -4.86769346	    -10.21325265	    -13.75426890	     13.18607626	     -1.39873332	     -6.10938282	      0.36374621	     -5.29068274
      0.06000000	     -1.33442999	     -2.21192978	      1.75493785	     -1.12129299	      0.94651272	      0.74192816	     -0.36287767	      1.84202748	    -16.70252727	     -8.43288512	     10.06737204	      2.35731077	      1.78236809	     -4.83886242	    -10.17695967	    -13.74007440	     13.18812208	     -1.41413010	     -6.10655840	      0.34910080	     -5.30269682
      0.07000000	     -1.32163845	     -2.20952752	      1.77332397	     -1.12111466	      0.94653114	      0.74188458	     -0.34866961	      1.83012632	    -16.70294813	     -8.51028104	     10.08278693	      2.36511665	      1.75992949	     -4.83580185	    -10.16276510	    -13.73909579	     13.18632533	     -1.41798455	     -6.10675643	      0.35892433	     -5.32880440
      0.08000000	     -1.31218070	     -2.18591353	      1.80149470	     -1.12092443	      0.94653794	      0.74180891	     -0.32255051	      1.78772957	    -16.78407094	     -8.61041789	     10.15871937	      2.40726457	      1.73612568	     -4.80445779	    -10.12210971	    -13.72822495	     13.18314606	     -1.42858250	     -6.10124110	      0.34223167	     -5.33918013
      0.09000000	     -1.29989758	     -2.18223451	      1.82111622	     -1.12076343	      0.94655725	      0.74176878	     -0.31281300	      1.77678012	    -16.78489417	     -8.67728308	     10.16659980	      2.42058704	      1.71739257	     -4.79988644	    -10.10418409	    -13.73038122	     13.17942661	     -1.43176878	     -6.10437552	      0.34962629	     -5.35798530
      0.10000000	     -1.28662879	     -2.15894062	      1.85330801	     -1.12058063	      0.94657269	      0.74170336	     -0.30366927	      1.73997699	    -16.85746123	     -8.75228586	     10.21847435	      2.46839006	      1.68950320	     -4.77013844	    -10.06103043	    -13.71649778	     13.17205327	     -1.44083220	     -6.10422521	      0.33394496	     -5.36964497
      0.11000000	     -1.28230202	     -2.15548366	      1.87269485	     -1.12038835	      0.94657858	      0.74168634	     -0.31178088	      1.73791068	    -16.85200428	     -8.77030045	     10.21768155	      2.46949501	      1.67908688	     -4.76876721	    -10.05958900	    -13.72263038	     13.17118290	     -1.44114379	     -6.08940437	      0.33821666	     -5.36788635
      0.12000000	     -1.25327144	     -2.13510969	      1.90534008	     -1.12024494	      0.94661599	      0.74163395	     -0.31124753	      1.70376932	    -16.91632906	     -8.85834304	     10.25511789	      2.50656040	      1.63771875	     -4.74238331	     -9.99847859	    -13.71122045	     13.16462762	     -1.44553747	     -6.11538088	      0.32790136	     -5.38935033
      0.13000000	     -1.24917134	     -2.13088814	      1.92650582	     -1.12007041	      0.94661982	      0.74163417	     -0.31998805	      1.70284004	    -16.91054107	     -8.87348431	     10.25436344	      2.50751008	      1.62916404	     -4.74110116	     -9.99790776	    -13.71652259	     13.16380144	     -1.44570185	     -6.10169800	      0.33098896	     -5.38691707
      0.14000000	     -1.22708383	     -2.12197780	      1.95405561	     -1.11996583	      0.94664854	      0.74162531	     -0.32367468	      1.69021300	    -16.91357089	     -8.93141263	     10.25933036	      2.52043533	      1.61215809	     -4.73412968	     -9.96253875	    -13.73253718	     13.16099791	     -1.44499192	     -6.12378575	      0.33148617	     -5.39970400
      0.15000000	     -1.22285641	     -2.11735262	      1.96978787	     -1.11979517	      0.94665392	      0.74164991	     -0.33359322	      1.68912889	    -16.91218213	     -8.94423082	     10.25980261	      2.52194906	      1.60313180	     -4.73332922	     -9.96016057	    -13.73932843	     13.16053311	     -1.44490303	     -6.10845761	      0.33345690	     -5.39676223
      0.16000000	     -1.19932895	     -2.10841549	      2.00049527	     -1.11971034	      0.94668570	      0.74165216	     -0.34173769	      1.67681853	    -16.93497722	     -8.99507348	     10.27542506	      2.54011741	      1.59365268	     -4.72800461	     -9.91703750	    -13.76947859	     13.16056620	     -1.44209487	     -6.13495644	      0.33211661	     -5.39728558
      0.17000000	     -1.19532533	     -2.10426961	      2.01058188	     -1.11956254	      0.94669507	      0.74170125	     -0.35058343	      1.67620439	    -16.93466002	     -9.00605970	     10.27660626	      2.54153074	      1.58647726	     -4.72867627	     -9.91462160	    -13.77712367	     13.16024361	     -1.44193852	     -6.12094526	      0.33468646	     -5.39628903
      0.18000000	     -1.17665630	     -2.10344039	      2.03221882	     -1.11950483	      0.94672409	      0.74173918	     -0.35392477	      1.67386068	    -16.95279263	     -9.05068074	     10.29799331	      2.55268031	      1.59159939	     -4.73559517	     -9.88354249	    -13.82400497	     13.16055321	     -1.43959994	     -6.14387197	      0.34294251	     -5.39492982
      0.19000000	     -1.16725048	     -2.10664088	      2.04824978	     -1.11943678	      0.94673854	      0.74179792	     -0.35194957	      1.67689244	    -16.97785397	     -9.08571237	     10.32440125	      2.56032510	      1.60516722	     -4.74822896	     -9.86512451	    -13.87038804	     13.16730955	     -1.43685915	     -6.15108143	      0.35554451	     -5.39844655
      0.20000000	     -1.17992024	     -2.11744112	      2.07011024	     -1.11939220	      0.94671730	      0.74186644	     -0.32273570	      1.68810382	    -17.01225093	     -9.12490863	     10.36162364	      2.56033680	      1.65519621	     -4.77215433	     -9.85700714	    -13.93462944	     13.19336556	     -1.43086184	     -6.13359544	      0.37581924	     -5.41228656
      0.21000000	     -1.17619940	     -2.11778640	      2.06679951	     -1.11936191	      0.94673299	      0.74197373	     -0.31420805	      1.68987198	    -17.00382344	     -9.15260318	     10.36589731	      2.55592238	      1.67349258	     -4.78143587	     -9.83851832	    -13.97967752	     13.19065507	     -1.43028090	     -6.14052980	      0.38498732	     -5.40091451
      0.22000000	     -1.20930990	     -2.13790041	      2.07122143	     -1.11935798	      0.94667751	      0.74209249	     -0.25656464	      1.71180524	    -17.01295528	     -9.19522851	     10.40198265	      2.52857257	      1.75950955	     -4.82046483	     -9.85559698	    -14.07043924	     13.22261679	     -1.42504485	     -6.10318350	      0.41603782	     -5.40445037
      0.23000000	     -1.20493200	     -2.13602131	      2.06721892	     -1.11935155	      0.94669732	      0.74221930	     -0.24646266	      1.71332377	    -16.99858154	     -9.22333721	     10.39991999	      2.52280495	      1.77774053	     -4.82788511	     -9.83459190	    -14.11383767	     13.21914443	     -1.42443858	     -6.11543149	      0.42187415	     -5.39383562
      0.24000000	     -1.20578011	     -2.14363658	      2.06290143	     -1.11935357	      0.94669956	      0.74235671	     -0.22698182	      1.72598620	    -16.98706761	     -9.25722985	     10.40408288	      2.51499655	      1.81261372	     -4.84914617	     -9.83073415	    -14.17608210	     13.22253521	     -1.42332496	     -6.12098855	      0.43868778	     -5.38828656
